<svg width="223" height="45" viewBox="0 0 223 45" fill="none" xmlns="http://www.w3.org/2000/svg">
<rect width="41.9213" height="41.9213" rx="10" fill="url(#paint0_linear_238_500)"/>
<path d="M20.9588 26.9963L31.1331 22.0333V28.5847L20.9583 33.1033L10.7836 28.5847V22.0327L20.9588 26.9963Z" fill="white"/>
<path d="M5.24189 17.2756L20.9623 9.60693L36.6829 17.2756L20.9623 24.9443L8.94258 19.0809V25.9066H7.09832V18.1812L5.24189 17.2756Z" fill="white"/>
<path d="M52.2848 25H54.196V21.5163L55.1484 20.5639L58.4851 25H60.831L56.5866 19.3942L60.5625 15.1818H58.2741L54.3622 19.3366H54.196V11.9091H52.2848V25ZM65.1616 25.2173C66.7852 25.2173 67.6992 24.3928 68.0636 23.6577H68.1403V25H70.0067V18.4801C70.0067 15.6229 67.7567 15.054 66.1971 15.054C64.4201 15.054 62.7837 15.7699 62.1445 17.5597L63.9407 17.9688C64.2219 17.272 64.9379 16.6009 66.2227 16.6009C67.4563 16.6009 68.0891 17.2464 68.0891 18.3587V18.4034C68.0891 19.1001 67.3732 19.0874 65.609 19.2919C63.7489 19.5092 61.8441 19.995 61.8441 22.2259C61.8441 24.1562 63.2951 25.2173 65.1616 25.2173ZM65.5771 23.6832C64.4968 23.6832 63.717 23.1974 63.717 22.2514C63.717 21.2287 64.6246 20.8643 65.7305 20.7173C66.3505 20.6342 67.8207 20.468 68.0955 20.1932V21.4588C68.0955 22.6222 67.1687 23.6832 65.5771 23.6832ZM72.5524 25H74.4636V18.9467C74.4636 17.6236 75.3904 16.7031 76.4771 16.7031C77.5382 16.7031 78.2733 17.4062 78.2733 18.4737V25H80.1781V18.7422C80.1781 17.5597 80.9004 16.7031 82.1468 16.7031C83.1568 16.7031 83.9877 17.2656 83.9877 18.5952V25H85.899V18.4162C85.899 16.1726 84.6461 15.054 82.8691 15.054C81.4565 15.054 80.3954 15.7315 79.9224 16.7798H79.8201C79.3919 15.706 78.4906 15.054 77.1802 15.054C75.8826 15.054 74.9174 15.6996 74.5083 16.7798H74.3869V15.1818H72.5524V25ZM88.4606 28.6818H90.3718V23.4723H90.4869C90.832 24.0987 91.5352 25.1918 93.3249 25.1918C95.7028 25.1918 97.4286 23.2869 97.4286 20.1101C97.4286 16.9268 95.6772 15.054 93.3058 15.054C91.484 15.054 90.8256 16.1662 90.4869 16.7734H90.3271V15.1818H88.4606V28.6818ZM90.3335 20.0909C90.3335 18.0391 91.2283 16.6776 92.8967 16.6776C94.6289 16.6776 95.4982 18.1413 95.4982 20.0909C95.4982 22.0597 94.6033 23.5618 92.8967 23.5618C91.2539 23.5618 90.3335 22.1555 90.3335 20.0909ZM105.789 20.9283C105.796 22.5966 104.556 23.3892 103.482 23.3892C102.299 23.3892 101.481 22.5327 101.481 21.1967V15.1818H99.57V21.4268C99.57 23.8622 100.906 25.1278 102.792 25.1278C104.268 25.1278 105.272 24.348 105.725 23.2997H105.828V25H107.707V15.1818H105.789V20.9283ZM117.632 17.5788C117.236 16.0511 116.041 15.054 113.919 15.054C111.7 15.054 110.128 16.2237 110.128 17.9624C110.128 19.3558 110.972 20.2827 112.813 20.6918L114.475 21.0561C115.421 21.267 115.862 21.6889 115.862 22.3026C115.862 23.0632 115.05 23.6577 113.797 23.6577C112.653 23.6577 111.918 23.1655 111.688 22.2003L109.84 22.4815C110.16 24.2202 111.605 25.1982 113.81 25.1982C116.181 25.1982 117.824 23.9389 117.824 22.1619C117.824 20.7749 116.942 19.9183 115.139 19.5028L113.58 19.1449C112.499 18.8892 112.033 18.5249 112.039 17.8601C112.033 17.1058 112.851 16.5689 113.938 16.5689C115.127 16.5689 115.676 17.2273 115.9 17.8857L117.632 17.5788Z" fill="#44464D"/>
<path d="M119.925 15.1818V25.6264C119.925 26.5341 119.548 27.0327 118.641 27.0327H118.334V28.6754C118.468 28.6818 118.589 28.6818 118.724 28.6818C120.756 28.6818 121.837 27.608 121.837 25.6392V15.1818H119.925ZM120.871 13.6669C121.53 13.6669 122.08 13.1555 122.08 12.5291C122.08 11.9027 121.53 11.3849 120.871 11.3849C120.207 11.3849 119.663 11.9027 119.663 12.5291C119.663 13.1555 120.207 13.6669 120.871 13.6669ZM127.265 25.2173C128.889 25.2173 129.803 24.3928 130.167 23.6577H130.244V25H132.11V18.4801C132.11 15.6229 129.86 15.054 128.301 15.054C126.524 15.054 124.887 15.7699 124.248 17.5597L126.044 17.9688C126.325 17.272 127.041 16.6009 128.326 16.6009C129.56 16.6009 130.193 17.2464 130.193 18.3587V18.4034C130.193 19.1001 129.477 19.0874 127.713 19.2919C125.852 19.5092 123.948 19.995 123.948 22.2259C123.948 24.1562 125.399 25.2173 127.265 25.2173ZM127.681 23.6832C126.6 23.6832 125.82 23.1974 125.82 22.2514C125.82 21.2287 126.728 20.8643 127.834 20.7173C128.454 20.6342 129.924 20.468 130.199 20.1932V21.4588C130.199 22.6222 129.272 23.6832 127.681 23.6832ZM134.809 25H136.676V23.4723H136.836C137.181 24.0987 137.884 25.1918 139.674 25.1918C142.051 25.1918 143.777 23.2869 143.777 20.1101C143.777 16.9268 142.026 15.054 139.654 15.054C137.833 15.054 137.174 16.1662 136.836 16.7734H136.721V11.9091H134.809V25ZM136.682 20.0909C136.682 18.0391 137.577 16.6776 139.245 16.6776C140.978 16.6776 141.847 18.1413 141.847 20.0909C141.847 22.0597 140.952 23.5618 139.245 23.5618C137.603 23.5618 136.682 22.1555 136.682 20.0909ZM148.781 25.2173C150.404 25.2173 151.318 24.3928 151.683 23.6577H151.759V25H153.626V18.4801C153.626 15.6229 151.376 15.054 149.816 15.054C148.039 15.054 146.403 15.7699 145.764 17.5597L147.56 17.9688C147.841 17.272 148.557 16.6009 149.842 16.6009C151.075 16.6009 151.708 17.2464 151.708 18.3587V18.4034C151.708 19.1001 150.992 19.0874 149.228 19.2919C147.368 19.5092 145.463 19.995 145.463 22.2259C145.463 24.1562 146.914 25.2173 148.781 25.2173ZM149.196 23.6832C148.116 23.6832 147.336 23.1974 147.336 22.2514C147.336 21.2287 148.244 20.8643 149.35 20.7173C149.97 20.6342 151.44 20.468 151.715 20.1932V21.4588C151.715 22.6222 150.788 23.6832 149.196 23.6832ZM156.172 25H158.083V19.0043C158.083 17.7195 159.074 16.7926 160.429 16.7926C160.825 16.7926 161.272 16.8629 161.426 16.9077V15.0795C161.234 15.054 160.857 15.0348 160.614 15.0348C159.463 15.0348 158.479 15.6868 158.121 16.7415H158.019V15.1818H156.172V25Z" fill="#344992"/>
<path d="M163.233 25H165.1V23.4723H165.259C165.605 24.0987 166.308 25.1918 168.097 25.1918C170.475 25.1918 172.201 23.2869 172.201 20.1101C172.201 16.9268 170.45 15.054 168.078 15.054C166.257 15.054 165.598 16.1662 165.259 16.7734H165.144V11.9091H163.233V25ZM165.106 20.0909C165.106 18.0391 166.001 16.6776 167.669 16.6776C169.401 16.6776 170.271 18.1413 170.271 20.0909C170.271 22.0597 169.376 23.5618 167.669 23.5618C166.026 23.5618 165.106 22.1555 165.106 20.0909ZM177.205 25.2173C178.828 25.2173 179.742 24.3928 180.107 23.6577H180.183V25H182.05V18.4801C182.05 15.6229 179.8 15.054 178.24 15.054C176.463 15.054 174.827 15.7699 174.188 17.5597L175.984 17.9688C176.265 17.272 176.981 16.6009 178.266 16.6009C179.499 16.6009 180.132 17.2464 180.132 18.3587V18.4034C180.132 19.1001 179.416 19.0874 177.652 19.2919C175.792 19.5092 173.887 19.995 173.887 22.2259C173.887 24.1562 175.338 25.2173 177.205 25.2173ZM177.62 23.6832C176.54 23.6832 175.76 23.1974 175.76 22.2514C175.76 21.2287 176.668 20.8643 177.773 20.7173C178.393 20.6342 179.864 20.468 180.138 20.1932V21.4588C180.138 22.6222 179.212 23.6832 177.62 23.6832ZM186.507 19.1705C186.507 17.6044 187.465 16.7095 188.795 16.7095C190.093 16.7095 190.879 17.5597 190.879 18.9851V25H192.79V18.755C192.79 16.326 191.454 15.054 189.447 15.054C187.97 15.054 187.005 15.7379 186.551 16.7798H186.43V15.1818H184.595V25H186.507V19.1705ZM199.936 15.1818H197.923V12.8295H196.012V15.1818H194.573V16.7159H196.012V22.5135C196.005 24.2969 197.367 25.1598 198.875 25.1278C199.482 25.1214 199.892 25.0064 200.115 24.9233L199.77 23.3445C199.642 23.37 199.406 23.4276 199.099 23.4276C198.479 23.4276 197.923 23.223 197.923 22.1172V16.7159H199.936V15.1818ZM206.176 25.1982C208.318 25.1982 209.833 24.1435 210.267 22.5455L208.458 22.2195C208.113 23.1463 207.282 23.6193 206.196 23.6193C204.559 23.6193 203.46 22.5582 203.409 20.6662H210.389V19.9886C210.389 16.4411 208.267 15.054 206.042 15.054C203.306 15.054 201.504 17.1378 201.504 20.1548C201.504 23.2038 203.281 25.1982 206.176 25.1982ZM203.415 19.2344C203.492 17.8409 204.502 16.6328 206.055 16.6328C207.538 16.6328 208.51 17.7322 208.516 19.2344H203.415ZM214.421 19.1705C214.421 17.6044 215.379 16.7095 216.709 16.7095C218.007 16.7095 218.793 17.5597 218.793 18.9851V25H220.704V18.755C220.704 16.326 219.368 15.054 217.361 15.054C215.884 15.054 214.919 15.7379 214.465 16.7798H214.344V15.1818H212.509V25H214.421V19.1705Z" fill="#0AA8C1"/>
<path d="M151.116 35.3636C151.116 33.0376 149.724 31.6278 147.842 31.6278C145.953 31.6278 144.565 33.0376 144.565 35.3636C144.565 37.6861 145.953 39.0994 147.842 39.0994C149.724 39.0994 151.116 37.6896 151.116 35.3636ZM150.03 35.3636C150.03 37.1357 149.092 38.098 147.842 38.098C146.589 38.098 145.655 37.1357 145.655 35.3636C145.655 33.5916 146.589 32.6293 147.842 32.6293C149.092 32.6293 150.03 33.5916 150.03 35.3636ZM153.461 35.7614C153.461 34.8913 153.994 34.3942 154.732 34.3942C155.453 34.3942 155.89 34.8665 155.89 35.6584V39H156.952V35.5305C156.952 34.1811 156.21 33.4744 155.095 33.4744C154.274 33.4744 153.738 33.8544 153.486 34.4332H153.419V33.5455H152.399V39H153.461V35.7614ZM159.438 31.7273H158.376V39H159.438V31.7273ZM160.866 39H161.928V33.5455H160.866V39ZM161.402 32.7038C161.768 32.7038 162.074 32.4197 162.074 32.0717C162.074 31.7237 161.768 31.4361 161.402 31.4361C161.033 31.4361 160.731 31.7237 160.731 32.0717C160.731 32.4197 161.033 32.7038 161.402 32.7038ZM164.418 35.7614C164.418 34.8913 164.951 34.3942 165.689 34.3942C166.41 34.3942 166.847 34.8665 166.847 35.6584V39H167.909V35.5305C167.909 34.1811 167.167 33.4744 166.052 33.4744C165.231 33.4744 164.695 33.8544 164.443 34.4332H164.376V33.5455H163.356V39H164.418V35.7614ZM171.684 39.1101C172.873 39.1101 173.715 38.5241 173.956 37.6364L172.952 37.4553C172.76 37.9702 172.298 38.233 171.694 38.233C170.785 38.233 170.175 37.6435 170.146 36.5923H174.024V36.2159C174.024 34.245 172.845 33.4744 171.609 33.4744C170.089 33.4744 169.088 34.6321 169.088 36.3082C169.088 38.0021 170.075 39.1101 171.684 39.1101ZM170.15 35.7969C170.192 35.0227 170.753 34.3516 171.616 34.3516C172.44 34.3516 172.98 34.9624 172.983 35.7969H170.15ZM180.288 39C182.504 39 183.786 37.6257 183.786 35.353C183.786 33.0909 182.504 31.7273 180.363 31.7273H177.934V39H180.288ZM179.031 38.0412V32.6861H180.295C181.886 32.6861 182.706 33.6378 182.706 35.353C182.706 37.0753 181.886 38.0412 180.228 38.0412H179.031ZM185.065 39H186.127V33.5455H185.065V39ZM185.602 32.7038C185.967 32.7038 186.273 32.4197 186.273 32.0717C186.273 31.7237 185.967 31.4361 185.602 31.4361C185.232 31.4361 184.93 31.7237 184.93 32.0717C184.93 32.4197 185.232 32.7038 185.602 32.7038ZM187.556 39H188.617V35.669C188.617 34.9553 189.168 34.4403 189.921 34.4403C190.141 34.4403 190.389 34.4794 190.475 34.5043V33.4886C190.368 33.4744 190.159 33.4638 190.024 33.4638C189.384 33.4638 188.838 33.826 188.639 34.4119H188.582V33.5455H187.556V39ZM193.549 39.1101C194.739 39.1101 195.58 38.5241 195.822 37.6364L194.817 37.4553C194.625 37.9702 194.163 38.233 193.56 38.233C192.651 38.233 192.04 37.6435 192.011 36.5923H195.889V36.2159C195.889 34.245 194.71 33.4744 193.474 33.4744C191.955 33.4744 190.953 34.6321 190.953 36.3082C190.953 38.0021 191.94 39.1101 193.549 39.1101ZM192.015 35.7969C192.058 35.0227 192.619 34.3516 193.482 34.3516C194.305 34.3516 194.845 34.9624 194.849 35.7969H192.015ZM199.365 39.1101C200.654 39.1101 201.488 38.3359 201.606 37.2741H200.572C200.437 37.8636 199.979 38.2116 199.372 38.2116C198.474 38.2116 197.895 37.4624 197.895 36.2727C197.895 35.1044 198.484 34.3693 199.372 34.3693C200.047 34.3693 200.459 34.7955 200.572 35.3068H201.606C201.492 34.206 200.594 33.4744 199.354 33.4744C197.817 33.4744 196.822 34.6321 196.822 36.2976C196.822 37.9418 197.781 39.1101 199.365 39.1101ZM205.287 33.5455H204.169V32.2386H203.107V33.5455H202.308V34.3977H203.107V37.6186C203.103 38.6094 203.86 39.0888 204.698 39.071C205.035 39.0675 205.262 39.0036 205.387 38.9574L205.195 38.0803C205.124 38.0945 204.993 38.1264 204.822 38.1264C204.478 38.1264 204.169 38.0128 204.169 37.3984V34.3977H205.287V33.5455ZM208.701 39.1101C210.238 39.1101 211.243 37.9844 211.243 36.2976C211.243 34.6001 210.238 33.4744 208.701 33.4744C207.163 33.4744 206.158 34.6001 206.158 36.2976C206.158 37.9844 207.163 39.1101 208.701 39.1101ZM208.704 38.2188C207.699 38.2188 207.231 37.3416 207.231 36.294C207.231 35.25 207.699 34.3622 208.704 34.3622C209.702 34.3622 210.171 35.25 210.171 36.294C210.171 37.3416 209.702 38.2188 208.704 38.2188ZM212.429 39H213.49V35.669C213.49 34.9553 214.041 34.4403 214.794 34.4403C215.014 34.4403 215.262 34.4794 215.348 34.5043V33.4886C215.241 33.4744 215.032 33.4638 214.897 33.4638C214.257 33.4638 213.711 33.826 213.512 34.4119H213.455V33.5455H212.429V39ZM217.104 41.0455C217.981 41.0455 218.535 40.5874 218.851 39.728L221.106 33.5561L219.959 33.5455L218.577 37.7784H218.521L217.139 33.5455H216.003L217.999 39.071L217.867 39.4332C217.597 40.1577 217.217 40.218 216.635 40.0582L216.379 40.9283C216.507 40.9851 216.784 41.0455 217.104 41.0455Z" fill="#9B9EA6"/>
<defs>
<linearGradient id="paint0_linear_238_500" x1="2.1834" y1="3.93012" x2="37.1178" y2="41.9213" gradientUnits="userSpaceOnUse">
<stop stop-color="#1256BB"/>
<stop offset="1" stop-color="#0AC1C1"/>
</linearGradient>
</defs>
</svg>
